%TF.GenerationSoftware,KiCad,Pcbnew,10.0.4*%
%TF.CreationDate,2026-08-14T23:41:35+09:00*%
%TF.ProjectId,Macropad,4d616372-6f70-4616-942e-6b696361645f,rev?*%
%TF.SameCoordinates,Original*%
%TF.FileFunction,Copper,L1,Top*%
%TF.FilePolarity,Positive*%
%FSLAX46Y46*%
G04 Gerber Fmt 4.6, Leading zero omitted, Abs format (unit mm)*
G04 Created by KiCad (PCBNEW 10.0.4) date 2026-08-14 23:41:35*
%MOMM*%
%LPD*%
G01*
G04 APERTURE LIST*
G04 Aperture macros list*
%AMRoundRect*
0 Rectangle with rounded corners*
0 $1 Rounding radius*
0 $2 $3 $4 $5 $6 $7 $8 $9 X,Y pos of 4 corners*
0 Add a 4 corners polygon primitive as box body*
4,1,4,$2,$3,$4,$5,$6,$7,$8,$9,$2,$3,0*
0 Add four circle primitives for the rounded corners*
1,1,$1+$1,$2,$3*
1,1,$1+$1,$4,$5*
1,1,$1+$1,$6,$7*
1,1,$1+$1,$8,$9*
0 Add four rect primitives between the rounded corners*
20,1,$1+$1,$2,$3,$4,$5,0*
20,1,$1+$1,$4,$5,$6,$7,0*
20,1,$1+$1,$6,$7,$8,$9,0*
20,1,$1+$1,$8,$9,$2,$3,0*%
G04 Aperture macros list end*
%TA.AperFunction,ComponentPad*%
%ADD10C,2.200000*%
%TD*%
%TA.AperFunction,ComponentPad*%
%ADD11R,2.000000X2.000000*%
%TD*%
%TA.AperFunction,ComponentPad*%
%ADD12C,2.000000*%
%TD*%
%TA.AperFunction,ComponentPad*%
%ADD13C,3.200000*%
%TD*%
%TA.AperFunction,ComponentPad*%
%ADD14R,3.500000X1.700000*%
%TD*%
%TA.AperFunction,ComponentPad*%
%ADD15O,3.600000X1.700000*%
%TD*%
%TA.AperFunction,ComponentPad*%
%ADD16O,3.700000X1.700000*%
%TD*%
%TA.AperFunction,ComponentPad*%
%ADD17RoundRect,0.170000X-0.680000X-0.680000X0.680000X-0.680000X0.680000X0.680000X-0.680000X0.680000X0*%
%TD*%
%TA.AperFunction,ComponentPad*%
%ADD18C,1.700000*%
%TD*%
%TA.AperFunction,Conductor*%
%ADD19C,0.250000*%
%TD*%
%TA.AperFunction,Conductor*%
%ADD20C,0.300000*%
%TD*%
%TA.AperFunction,Conductor*%
%ADD21C,0.200000*%
%TD*%
G04 APERTURE END LIST*
D10*
%TO.P,SW6,1,1_1*%
%TO.N,Net-(U1-PB08_A6_D6_TX)*%
X124540000Y-123200000D03*
%TO.P,SW6,2,2_2*%
%TO.N,GND*%
X118190000Y-125740000D03*
%TD*%
D11*
%TO.P,SW4,A,A_A*%
%TO.N,Net-(U1-PA02_A0_D0)*%
X139000000Y-63900000D03*
D12*
%TO.P,SW4,B,B_B*%
%TO.N,Net-(U1-PA4_A1_D1)*%
X139000000Y-68900000D03*
%TO.P,SW4,C,C_C*%
%TO.N,GND*%
X139000000Y-66400000D03*
D13*
%TO.P,SW4,MP*%
%TO.N,N/C*%
X146500000Y-60800000D03*
X146500000Y-72000000D03*
D12*
%TO.P,SW4,S1,S1_S1*%
%TO.N,Net-(U1-PA10_A2_D2)*%
X153500000Y-68900000D03*
%TO.P,SW4,S2,S2_S2*%
%TO.N,GND*%
X153500000Y-63900000D03*
%TD*%
D14*
%TO.P,U1,1,PA02_A0_D0_1*%
%TO.N,Net-(U1-PA02_A0_D0)*%
X113045500Y-45380000D03*
D15*
%TO.P,U1,2,PA4_A1_D1_2*%
%TO.N,Net-(U1-PA4_A1_D1)*%
X113045500Y-47920000D03*
%TO.P,U1,3,PA10_A2_D2_3*%
%TO.N,Net-(U1-PA10_A2_D2)*%
X113045500Y-50460000D03*
%TO.P,U1,4,PA11_A3_D3_4*%
%TO.N,Net-(U1-PA11_A3_D3)*%
X113045500Y-53000000D03*
%TO.P,U1,5,PA8_A4_D4_SDA_5*%
%TO.N,Net-(U1-PA8_A4_D4_SDA)*%
X113045500Y-55540000D03*
%TO.P,U1,6,PA9_A5_D5_SCL_6*%
%TO.N,Net-(U1-PA9_A5_D5_SCL)*%
X113045500Y-58080000D03*
%TO.P,U1,7,PB08_A6_D6_TX_7*%
%TO.N,Net-(U1-PB08_A6_D6_TX)*%
X113045500Y-60620000D03*
%TO.P,U1,8,PB09_A7_D7_RX_8*%
%TO.N,unconnected-(U1-PB09_A7_D7_RX-Pad8)*%
X130295500Y-60620000D03*
%TO.P,U1,9,PA7_A8_D8_SCK_9*%
%TO.N,Net-(U1-PA7_A8_D8_SCK)*%
X130295500Y-58080000D03*
%TO.P,U1,10,PA5_A9_D9_MISO_10*%
%TO.N,Net-(U1-PA5_A9_D9_MISO)*%
X130295500Y-55540000D03*
D16*
%TO.P,U1,11,PA6_A10_D10_MOSI_11*%
%TO.N,Net-(U1-PA6_A10_D10_MOSI)*%
X130295500Y-53000000D03*
%TO.P,U1,12,3V3_12*%
%TO.N,Net-(U1-3V3)*%
X130295500Y-50460000D03*
%TO.P,U1,13,GND_13*%
%TO.N,GND*%
X130295500Y-47920000D03*
%TO.P,U1,14,5V_14*%
%TO.N,unconnected-(U1-5V-Pad14)*%
X130295500Y-45380000D03*
%TD*%
D17*
%TO.P,U2,1,GND_1*%
%TO.N,GND*%
X142440000Y-86900000D03*
D18*
%TO.P,U2,2,VCC_2*%
%TO.N,Net-(U1-3V3)*%
X144980000Y-86900000D03*
%TO.P,U2,3,SCL_3*%
%TO.N,Net-(U1-PA9_A5_D5_SCL)*%
X147520000Y-86900000D03*
%TO.P,U2,4,SDA_4*%
%TO.N,Net-(U1-PA8_A4_D4_SDA)*%
X150060000Y-86900000D03*
%TD*%
D10*
%TO.P,SW1,1,1_1*%
%TO.N,Net-(U1-PA6_A10_D10_MOSI)*%
X124540000Y-47000000D03*
%TO.P,SW1,2,2_2*%
%TO.N,GND*%
X118190000Y-49540000D03*
%TD*%
%TO.P,SW5,1,1_1*%
%TO.N,Net-(U1-PA11_A3_D3)*%
X124540000Y-104150000D03*
%TO.P,SW5,2,2_2*%
%TO.N,GND*%
X118190000Y-106690000D03*
%TD*%
%TO.P,SW3,1,1_1*%
%TO.N,Net-(U1-PA7_A8_D8_SCK)*%
X124540000Y-85100000D03*
%TO.P,SW3,2,2_2*%
%TO.N,GND*%
X118190000Y-87640000D03*
%TD*%
%TO.P,SW2,1,1_1*%
%TO.N,Net-(U1-PA5_A9_D9_MISO)*%
X124540000Y-66050000D03*
%TO.P,SW2,2,2_2*%
%TO.N,GND*%
X118190000Y-68590000D03*
%TD*%
%TO.N,Net-(U1-PB08_A6_D6_TX)*%
D19*
X106500000Y-68165500D02*
X114045500Y-60620000D01*
X124540000Y-106165255D02*
X125965000Y-104740255D01*
X125965000Y-103465000D02*
X106500000Y-84000000D01*
X125965000Y-104740255D02*
X125965000Y-103465000D01*
X106500000Y-84000000D02*
X106500000Y-68165500D01*
X124540000Y-123200000D02*
X124540000Y-106165255D01*
%TO.N,Net-(U1-PA02_A0_D0)*%
X147255000Y-43755000D02*
X115670500Y-43755000D01*
X146626167Y-63900000D02*
X152951167Y-70225000D01*
X115670500Y-43755000D02*
X114045500Y-45380000D01*
X154048833Y-70225000D02*
X154825000Y-69448833D01*
X154825000Y-51325000D02*
X147255000Y-43755000D01*
X154825000Y-69448833D02*
X154825000Y-51325000D01*
X152951167Y-70225000D02*
X154048833Y-70225000D01*
X139000000Y-63900000D02*
X146626167Y-63900000D01*
%TO.N,Net-(U1-PA4_A1_D1)*%
X110000000Y-42625000D02*
X110000000Y-45584500D01*
X148222362Y-71000000D02*
X157500000Y-71000000D01*
X139000000Y-68900000D02*
X146122362Y-68900000D01*
X112335500Y-47920000D02*
X114045500Y-47920000D01*
X157500000Y-48000000D02*
X152125000Y-42625000D01*
X152125000Y-42625000D02*
X110000000Y-42625000D01*
X110000000Y-45584500D02*
X112335500Y-47920000D01*
X146122362Y-68900000D02*
X148222362Y-71000000D01*
X157500000Y-71000000D02*
X157500000Y-48000000D01*
%TO.N,Net-(U1-PA10_A2_D2)*%
X132627362Y-44205000D02*
X120300500Y-44205000D01*
X152175000Y-67575000D02*
X152175000Y-63752638D01*
X153500000Y-68900000D02*
X152175000Y-67575000D01*
X120300500Y-44205000D02*
X114045500Y-50460000D01*
X152175000Y-63752638D02*
X132627362Y-44205000D01*
%TO.N,Net-(U1-PA11_A3_D3)*%
X113545500Y-53500000D02*
X114045500Y-53000000D01*
X124540000Y-104150000D02*
X105000000Y-84610000D01*
X105000000Y-53500000D02*
X113545500Y-53500000D01*
X105000000Y-84610000D02*
X105000000Y-53500000D01*
%TO.N,Net-(U1-PA8_A4_D4_SDA)*%
X117000000Y-58494500D02*
X114045500Y-55540000D01*
X114500000Y-70442412D02*
X114500000Y-68000000D01*
X114500000Y-68000000D02*
X117000000Y-65500000D01*
X150060000Y-86900000D02*
X148885000Y-88075000D01*
X117000000Y-65500000D02*
X117000000Y-58494500D01*
X132132588Y-88075000D02*
X114500000Y-70442412D01*
X148885000Y-88075000D02*
X132132588Y-88075000D01*
%TO.N,Net-(U1-PA9_A5_D5_SCL)*%
X151235000Y-86413299D02*
X151235000Y-87386701D01*
X147520000Y-86900000D02*
X147520000Y-86980000D01*
X151235000Y-87386701D02*
X150096701Y-88525000D01*
X115170500Y-61329500D02*
X115170500Y-59205000D01*
X125949745Y-88525000D02*
X113600000Y-76175255D01*
X150546701Y-85725000D02*
X151235000Y-86413299D01*
X147520000Y-86980000D02*
X148775000Y-85725000D01*
X148775000Y-85725000D02*
X150546701Y-85725000D01*
X113600000Y-62900000D02*
X115170500Y-61329500D01*
X150096701Y-88525000D02*
X125949745Y-88525000D01*
X115170500Y-59205000D02*
X114045500Y-58080000D01*
X113600000Y-76175255D02*
X113600000Y-62900000D01*
%TO.N,Net-(U1-PA7_A8_D8_SCK)*%
X116550000Y-58782799D02*
X114482201Y-56715000D01*
X114050000Y-67813604D02*
X116550000Y-65313604D01*
X114050000Y-74610000D02*
X114050000Y-67813604D01*
X124540000Y-85100000D02*
X114050000Y-74610000D01*
X116550000Y-65313604D02*
X116550000Y-58782799D01*
X111608799Y-56715000D02*
X110920500Y-56026701D01*
X110920500Y-56026701D02*
X110920500Y-55053299D01*
X120926243Y-54365000D02*
X124641243Y-58080000D01*
X110920500Y-55053299D02*
X111608799Y-54365000D01*
X114482201Y-56715000D02*
X111608799Y-56715000D01*
X124641243Y-58080000D02*
X129295500Y-58080000D01*
X111608799Y-54365000D02*
X120926243Y-54365000D01*
%TO.N,Net-(U1-PA5_A9_D9_MISO)*%
D20*
X132445500Y-61554500D02*
X132445500Y-57582944D01*
X130402556Y-55540000D02*
X129295500Y-55540000D01*
X127500000Y-66500000D02*
X132445500Y-61554500D01*
X124550000Y-66050000D02*
X125000000Y-66500000D01*
X125000000Y-66500000D02*
X127500000Y-66500000D01*
X124540000Y-66050000D02*
X124550000Y-66050000D01*
X132445500Y-57582944D02*
X130402556Y-55540000D01*
%TO.N,Net-(U1-PA6_A10_D10_MOSI)*%
D21*
X124540000Y-47842944D02*
X129295500Y-52598444D01*
X124540000Y-47000000D02*
X124540000Y-47842944D01*
X129295500Y-52598444D02*
X129295500Y-53000000D01*
%TO.N,Net-(U1-3V3)*%
D19*
X144980000Y-86900000D02*
X134000000Y-75920000D01*
X130417201Y-50460000D02*
X129295500Y-50460000D01*
X134000000Y-54042799D02*
X130417201Y-50460000D01*
X134000000Y-75920000D02*
X134000000Y-54042799D01*
%TD*%
M02*
