%TF.GenerationSoftware,KiCad,Pcbnew,10.0.4*%
%TF.CreationDate,2026-08-14T23:41:39+09:00*%
%TF.ProjectId,Macropad,4d616372-6f70-4616-942e-6b696361645f,rev?*%
%TF.SameCoordinates,Original*%
%TF.FileFunction,Soldermask,Bot*%
%TF.FilePolarity,Negative*%
%FSLAX46Y46*%
G04 Gerber Fmt 4.6, Leading zero omitted, Abs format (unit mm)*
G04 Created by KiCad (PCBNEW 10.0.4) date 2026-08-14 23:41:39*
%MOMM*%
%LPD*%
G01*
G04 APERTURE LIST*
G04 Aperture macros list*
%AMRoundRect*
0 Rectangle with rounded corners*
0 $1 Rounding radius*
0 $2 $3 $4 $5 $6 $7 $8 $9 X,Y pos of 4 corners*
0 Add a 4 corners polygon primitive as box body*
4,1,4,$2,$3,$4,$5,$6,$7,$8,$9,$2,$3,0*
0 Add four circle primitives for the rounded corners*
1,1,$1+$1,$2,$3*
1,1,$1+$1,$4,$5*
1,1,$1+$1,$6,$7*
1,1,$1+$1,$8,$9*
0 Add four rect primitives between the rounded corners*
20,1,$1+$1,$2,$3,$4,$5,0*
20,1,$1+$1,$4,$5,$6,$7,0*
20,1,$1+$1,$6,$7,$8,$9,0*
20,1,$1+$1,$8,$9,$2,$3,0*%
G04 Aperture macros list end*
%ADD10C,1.700000*%
%ADD11C,4.000000*%
%ADD12C,2.200000*%
%ADD13R,2.000000X2.000000*%
%ADD14C,2.000000*%
%ADD15C,3.200000*%
%ADD16R,3.500000X1.700000*%
%ADD17O,3.600000X1.700000*%
%ADD18O,3.700000X1.700000*%
%ADD19RoundRect,0.170000X-0.680000X-0.680000X0.680000X-0.680000X0.680000X0.680000X-0.680000X0.680000X0*%
G04 APERTURE END LIST*
D10*
%TO.C,SW6*%
X116920000Y-128280000D03*
D11*
X122000000Y-128280000D03*
D10*
X127080000Y-128280000D03*
D12*
X124540000Y-123200000D03*
X118190000Y-125740000D03*
%TD*%
D13*
%TO.C,SW4*%
X139000000Y-63900000D03*
D14*
X139000000Y-68900000D03*
X139000000Y-66400000D03*
D15*
X146500000Y-60800000D03*
X146500000Y-72000000D03*
D14*
X153500000Y-68900000D03*
X153500000Y-63900000D03*
%TD*%
D16*
%TO.C,U1*%
X113045500Y-45380000D03*
D17*
X113045500Y-47920000D03*
X113045500Y-50460000D03*
X113045500Y-53000000D03*
X113045500Y-55540000D03*
X113045500Y-58080000D03*
X113045500Y-60620000D03*
X130295500Y-60620000D03*
X130295500Y-58080000D03*
X130295500Y-55540000D03*
D18*
X130295500Y-53000000D03*
X130295500Y-50460000D03*
X130295500Y-47920000D03*
X130295500Y-45380000D03*
%TD*%
D19*
%TO.C,U2*%
X142440000Y-86900000D03*
D10*
X144980000Y-86900000D03*
X147520000Y-86900000D03*
X150060000Y-86900000D03*
%TD*%
%TO.C,SW1*%
X116920000Y-52080000D03*
D11*
X122000000Y-52080000D03*
D10*
X127080000Y-52080000D03*
D12*
X124540000Y-47000000D03*
X118190000Y-49540000D03*
%TD*%
D10*
%TO.C,SW5*%
X116920000Y-109230000D03*
D11*
X122000000Y-109230000D03*
D10*
X127080000Y-109230000D03*
D12*
X124540000Y-104150000D03*
X118190000Y-106690000D03*
%TD*%
D10*
%TO.C,SW3*%
X116920000Y-90180000D03*
D11*
X122000000Y-90180000D03*
D10*
X127080000Y-90180000D03*
D12*
X124540000Y-85100000D03*
X118190000Y-87640000D03*
%TD*%
D10*
%TO.C,SW2*%
X116920000Y-71130000D03*
D11*
X122000000Y-71130000D03*
D10*
X127080000Y-71130000D03*
D12*
X124540000Y-66050000D03*
X118190000Y-68590000D03*
%TD*%
M02*
