M48
; DRILL file KiCad 10.0.4 date 2026-08-14T23:41:53
; FORMAT={-:-/ absolute / metric / decimal}
; #@! TF.CreationDate,2026-08-14T23:41:53+09:00
; #@! TF.GenerationSoftware,Kicad,Pcbnew,10.0.4
; #@! TF.FileFunction,Plated,1,2,PTH
FMAT,2
METRIC
; #@! TA.AperFunction,Plated,PTH,ComponentDrill
T1C1.000
; #@! TA.AperFunction,Plated,PTH,ComponentDrill
T2C1.500
; #@! TA.AperFunction,Plated,PTH,ComponentDrill
T3C2.600
%
G90
G05
T1
X114.045Y-45.38
X114.045Y-47.92
X114.045Y-50.46
X114.045Y-53.0
X114.045Y-55.54
X114.045Y-58.08
X114.045Y-60.62
X129.296Y-45.38
X129.296Y-47.92
X129.296Y-50.46
X129.296Y-53.0
X129.296Y-55.54
X129.296Y-58.08
X129.296Y-60.62
X139.0Y-63.9
X139.0Y-66.4
X139.0Y-68.9
X142.44Y-86.9
X144.98Y-86.9
X147.52Y-86.9
X150.06Y-86.9
X153.5Y-63.9
X153.5Y-68.9
T2
X118.19Y-49.54
X118.19Y-68.59
X118.19Y-87.64
X118.19Y-106.69
X118.19Y-125.74
X124.54Y-47.0
X124.54Y-66.05
X124.54Y-85.1
X124.54Y-104.15
X124.54Y-123.2
T3
X146.5Y-60.8
X146.5Y-72.0
M30
